# xmcd
#
# Track frame offsets: 
#        150
#        28515
#        44138
#        65134
#        85413
#        111713
#        126163
#        138325
#        148854
#
# Disc length: 2169 seconds
#
# Revision: 0
# Processed by: cddbd v1.5.2PL0 Copyright (c) Steve Scherf et al.
# Submitted via: ExactAudioCopy v0.95a5
#
DISCID=93087709
DTITLE=Petunia And The Vipers - I Live In The Past
DYEAR=2009
DGENRE=Retro
TTITLE0=The Lonesome Pine Hollows
TTITLE1=Her Love Rubbed Off
TTITLE2=Trouble On My Mind
TTITLE3=Big Wide River Of Love
TTITLE4=Hillbilly Hut
TTITLE5=Ragtime Cowboy Joe
TTITLE6=Love Love Love
TTITLE7=The Wild One
TTITLE8=I Live In The Past
EXTD=
EXTT0=
EXTT1=
EXTT2=
EXTT3=
EXTT4=
EXTT5=
EXTT6=
EXTT7=
EXTT8=
PLAYORDER=
